PathFileType	4	(X/Y/Z)	C:/Users/opensim2020/Desktop/walking_exp_matlab/subject02_walking05_straight_04.trc																																																																																																																												
DataRate	CameraRate	NumFrames	NumMarkers	Units	OrigDataRate	OrigDataStartFrame	OrigNumFrames																																																																																																																								
100	100	4	42	mm	100	2736	220																																																																																																																								
Frame#	Time	LFHD			RFHD			LBHD			RBHD			C7			T10			CLAV			STRN			RBAK			LSHO			LUPA			LELB			LFRM			LWRA			LWRB			LFIN			RSHO			RUPA			RELB			RFRM			RWRA			RWRB			RFIN			LASI			RASI			LPSI			RPSI			LTHI			LKNE			LTIB			LANK			LHEE			LTOE			RTHI			RKNE			RTIB			RANK			RHEE			RTOE			*39			*40			*41		
		X1	Y1	Z1	X2	Y2	Z2	X3	Y3	Z3	X4	Y4	Z4	X5	Y5	Z5	X6	Y6	Z6	X7	Y7	Z7	X8	Y8	Z8	X9	Y9	Z9	X10	Y10	Z10	X11	Y11	Z11	X12	Y12	Z12	X13	Y13	Z13	X14	Y14	Z14	X15	Y15	Z15	X16	Y16	Z16	X17	Y17	Z17	X18	Y18	Z18	X19	Y19	Z19	X20	Y20	Z20	X21	Y21	Z21	X22	Y22	Z22	X23	Y23	Z23	X24	Y24	Z24	X25	Y25	Z25	X26	Y26	Z26	X27	Y27	Z27	X28	Y28	Z28	X29	Y29	Z29	X30	Y30	Z30	X31	Y31	Z31	X32	Y32	Z32	X33	Y33	Z33	X34	Y34	Z34	X35	Y35	Z35	X36	Y36	Z36	X37	Y37	Z37	X38	Y38	Z38	X39	Y39	Z39	X40	Y40	Z40	X41	Y41	Z41	X42	Y42	Z42
																																																																																																																															
1	0	-1050.98792	1735.45068	-1477.43384	-1058.07922	1716.59827	-1335.0741	-1184.46399	1666.09753	-1490.93262	-1203.37866	1647.38904	-1350.30237	-1246.8457	1521.22375	-1410.40674	-1286.29614	1242.48169	-1391.54028	-1105.30945	1457.26807	-1431.11584	-1043.62061	1291.36414	-1419.66943	-1294.06262	1345.83325	-1333.59216	-1191.85413	1488.9541	-1594.5863	-1212.52661	1285.43066	-1675.26184	-1218.49243	1146.44678	-1685.75623	-1212.54822	1015.24121	-1700.62085	-1159.85474	887.49957	-1673.46631	-1205.92505	892.93585	-1706.46106	-1190.48828	827.16687	-1709.99817	-1156.47351	1497.52502	-1230.76855	-1146.72644	1306.69763	-1140.43005	-1098.15125	1166.6637	-1121.91638	-1031.57227	1064.13989	-1113.49438	-949.01782	961.12042	-1147.64795	-985.6203	942.35364	-1107.66699	-928.11328	897.21216	-1115.07654	-1040.56079	1004.40186	-1546.57385	-1035.48926	970.35864	-1292.76025	-1252.45142	1030.77661	-1459.90332	-1252.73096	1020.18213	-1345.0658	-1074.57214	693.33472	-1611.4646	-1089.06006	488.21289	-1585.18933	-1137.34021	297.87277	-1588.25281	-1126.9762	75.78236	-1555.30713	-1159.3905	47.86283	-1503.30273	-970.64063	38.23842	-1576.89087	-1101.23547	662.85059	-1210.8512	-1093.28577	465.35559	-1213.19482	-1240.8855	360.39822	-1195.34521	-1390.65491	237.75099	-1215.86169	-1451.9054	222.65614	-1272.1521	-1337.89111	83.39694	-1204.27368	-1153.16809	1804.94104	-1390.70911	-2845.91797	1033.95691	3356.85498	NaN	NaN	NaN
2	0.01	-1042.44067	1736.75952	-1479.83337	-1049.87512	1717.9397	-1337.75598	-1175.81653	1667.28003	-1493.91113	-1194.92529	1648.41589	-1353.25537	-1238.09155	1522.54846	-1414.10059	-1277.7384	1243.54724	-1395.64966	-1096.66882	1458.51416	-1434.14417	-1035.2804	1292.26892	-1422.19922	-1285.84399	1346.84253	-1337.92432	-1181.34167	1490.45459	-1597.85779	-1199.37817	1287.25061	-1680.24744	-1203.16406	1148.12073	-1692.25867	-1193.86182	1016.89465	-1707.11841	-1138.33801	890.71405	-1679.5127	-1184.24927	894.85834	-1712.87769	-1166.521	829.80536	-1716.66443	-1148.91199	1498.23071	-1233.80383	-1140.5752	1307.14026	-1143.95752	-1093.35962	1166.53979	-1125.79932	-1027.85193	1063.13135	-1116.40149	-946.99237	958.69507	-1150.24036	-984.13678	940.76361	-1110.57263	-927.47345	894.3728	-1117.53748	-1032.25598	1004.45441	-1549.19678	-1028.0293	971.90497	-1294.73938	-1244.53015	1031.91016	-1463.98596	-1245.51233	1021.6203	-1349.46997	-1069.58337	693.29071	-1613.01648	-1086.79761	487.94214	-1586.55188	-1135.77258	297.84814	-1589.41919	-1126.81433	75.77766	-1555.31738	-1159.43066	47.87924	-1503.28003	-970.7619	38.35526	-1576.92456	-1088.70288	664.97137	-1213.51306	-1075.95239	468.11035	-1216.75854	-1224.0304	363.06143	-1200.58508	-1372.50647	239.33881	-1222.71033	-1432.29858	221.51706	-1280.45557	-1317.83325	87.25096	-1202.82153	-1145.08362	1806.28577	-1393.73132	-2845.15381	1033.88281	3360.24707	NaN	NaN	NaN
3	0.02	-1034.02625	1738.18726	-1482.55933	-1041.57373	1719.03992	-1340.13684	-1167.10315	1668.40979	-1496.8219	-1186.49658	1649.40381	-1356.16052	-1229.34656	1523.84241	-1417.72913	-1269.7771	1244.93945	-1400.23535	-1088.00305	1459.49707	-1436.79309	-1026.95508	1292.91357	-1424.53992	-1277.98804	1348.07776	-1342.58093	-1170.95349	1492.06848	-1601.21643	-1186.12439	1289.12	-1685.09705	-1187.57031	1149.78369	-1698.37378	-1175.00085	1018.74664	-1713.39648	-1116.75647	894.06335	-1685.13831	-1162.47168	897.06348	-1719.27747	-1142.50366	832.82001	-1723.37622	-1141.28296	1498.84607	-1236.81348	-1134.74854	1307.39722	-1147.56177	-1088.53345	1166.52185	-1129.53369	-1025.12	1062.23535	-1119.96216	-945.22516	956.76642	-1152.9386	-982.74097	939.21631	-1113.19116	-927.58954	891.40607	-1120.1543	-1024.0968	1004.33099	-1551.84387	-1020.90045	973.47552	-1296.73584	-1236.63684	1032.92383	-1467.91907	-1238.23425	1023.14893	-1353.63379	-1065.34253	692.88983	-1614.34509	-1084.83691	487.71979	-1587.80847	-1134.66101	298.04651	-1590.35376	-1126.7644	75.81471	-1555.33875	-1159.44836	47.97431	-1503.23523	-970.65997	38.16174	-1576.80981	-1076.10706	667.10602	-1216.06628	-1059.83899	471.08017	-1219.5271	-1207.49878	365.39554	-1205.65894	-1353.84009	239.67134	-1229.24463	-1412.08435	219.15158	-1288.23096	-1296.74365	90.27483	-1202.03491	-1136.81274	1807.31555	-1396.38818	-2845.80566	1033.69592	3357.02319	NaN	NaN	NaN
4	0.03	-1025.41919	1739.43091	-1484.95715	-1033.38403	1720.34521	-1342.70361	-1158.34192	1669.42407	-1499.5885	-1178.04517	1650.30823	-1358.99438	-1220.56311	1525.09375	-1421.31897	-1261.65576	1246.2074	-1404.49915	-1079.35071	1460.35803	-1439.43567	-1018.64685	1293.5979	-1427.12585	-1269.51453	1348.94495	-1346.51392	-1160.52771	1493.54517	-1604.45349	-1172.8136	1291.04016	-1689.75586	-1171.8894	1151.66895	-1704.49438	-1155.99731	1020.83484	-1719.65222	-1095.15894	897.90454	-1691.1167	-1140.60803	899.57312	-1725.61182	-1118.37903	836.20319	-1729.9248	-1133.49243	1499.39148	-1239.75647	-1128.63611	1307.83545	-1150.89746	-1084.21277	1166.43005	-1132.66907	-1021.41864	1061.48975	-1122.94263	-943.56738	954.52905	-1155.60767	-981.27783	937.68573	-1115.43103	-927.16034	888.82178	-1122.56128	-1016.01794	1004.15302	-1554.54822	-1013.80621	975.12579	-1298.86609	-1228.88623	1033.8606	-1471.51245	-1230.96399	1024.64453	-1357.36401	-1060.8363	692.60785	-1615.90222	-1083.24377	487.5899	-1588.94043	-1134.04712	298.17978	-1590.77539	-1126.57568	75.56079	-1555.0918	-1159.46704	48.05188	-1503.18445	-970.76483	38.26624	-1576.94397	-1063.55579	669.30194	-1218.49133	-1043.59277	473.86008	-1222.7467	-1190.78516	367.14438	-1210.68604	-1334.44641	238.79076	-1235.42712	-1391.27454	215.58832	-1295.25989	-1274.73694	92.33396	-1202.11157	-1128.55615	1808.33435	-1399.00867	-2845.07788	1033.83191	3360.21582	NaN	NaN	NaN
